<svg width="677" height="210" viewBox="0 0 677 210" fill="none" xmlns="http://www.w3.org/2000/svg">
<mask id="path-1-outside-1_0_1" maskUnits="userSpaceOnUse" x="0" y="58" width="677" height="94" fill="black">
<rect fill="white" y="58" width="677" height="94"/>
<path d="M61.3328 101.25C66.7594 103.01 71.0494 105.833 74.2028 109.72C77.3561 113.533 78.9328 117.897 78.9328 122.81C78.9328 127.43 77.0261 131.793 73.2128 135.9C69.3994 139.933 64.6328 143.16 58.9128 145.58C53.1928 148 47.7661 149.21 42.6328 149.21C38.9661 149.21 35.3728 149.027 31.8528 148.66C25.9861 148.293 21.4394 148.11 18.2128 148.11H3.14277V143.6L13.4828 135.46V70.56L1.82277 67.04L4.57277 61.54H18.1028C24.7761 61.54 31.3394 61.32 37.7928 60.88C42.7794 60.5867 46.4461 60.44 48.7928 60.44C53.9261 60.44 58.4361 61.3933 62.3228 63.3C66.2094 65.2067 69.2161 67.81 71.3428 71.11C73.4694 74.3367 74.5328 77.9667 74.5328 82C74.5328 85.6667 73.3228 89.1867 70.9028 92.56C68.4828 95.86 65.2928 98.7567 61.3328 101.25ZM57.2628 87.39C57.2628 81.8167 55.8328 77.3067 52.9728 73.86C50.1128 70.34 45.8594 68.58 40.2128 68.58C36.3994 68.58 32.9161 69.5333 29.7628 71.44V100.37H44.0628C48.2428 100.37 51.4694 99.27 53.7428 97.07C56.0894 94.7967 57.2628 91.57 57.2628 87.39ZM45.7128 139.64C50.6261 139.64 54.5128 138.43 57.3728 136.01C60.2328 133.517 61.6628 130.143 61.6628 125.89C61.6628 120.463 60.0861 116.1 56.9328 112.8C53.8528 109.427 49.2694 107.63 43.1828 107.41C42.6694 107.483 41.9361 107.52 40.9828 107.52H29.7628V137.11C34.2361 138.943 39.5528 139.86 45.7128 139.86V139.64ZM158.022 148H90.2619V143.49L100.602 135.35V70.56L88.9419 67.04L91.6919 61.54H127.332V66.05L116.882 74.19V141.62H143.832L160.332 117.53L164.732 119.18V149.98L158.022 148ZM244.489 148H177.059V143.49L187.399 135.35V70.78L175.739 67.04L178.489 61.54H243.389L250.099 59.56V85.96L245.699 87.61L232.389 67.81H203.679V100.7H219.189L227.329 87.28H231.839V120.17L226.339 122.92L219.299 106.97H203.679V141.62H231.839L246.799 119.73L251.199 121.38V149.98L244.489 148ZM356.291 148H319.771V143.49L330.771 135.9L322.961 116.98H287.211L279.401 135.35L297.661 142.5L294.911 148H260.701V143.49L271.701 135.02L301.621 65.06L316.031 59.45L347.821 136.23L359.041 142.5L356.291 148ZM305.471 74.41L289.961 110.71H320.431L305.471 74.41ZM403.007 142.5L400.257 148H364.617V143.49L374.957 135.13V70.67L363.297 67.04L366.047 61.54H401.687V66.05L391.237 74.41V138.76L403.007 142.5ZM451.077 148H429.737L396.737 104.66L429.847 75.73L416.977 67.04L419.727 61.54H450.637V66.05L412.577 99.38L441.397 136.56L453.827 142.5L451.077 148ZM534.23 85.96L529.83 87.61L516.3 67.81H487.81V100.7H503.32L511.46 87.28H515.97V118.19L510.47 120.94L503.54 106.97H487.81V138.1L505.63 142.5L502.88 148H461.19V143.49L471.53 135.35V70.78L459.87 67.04L462.62 61.54H527.52L534.23 59.56V85.96ZM582.337 148H546.697V143.49L557.037 135.13V70.67L545.377 67.04L548.127 61.54H583.767V66.05L573.317 74.41V138.76L585.087 142.5L582.337 148ZM675.317 88.16L670.917 89.81L655.957 67.81H643.857V138.87L655.627 142.5L652.877 148H617.237V143.49L627.577 135.35V67.81H615.807L600.847 89.81L596.447 88.16V59.56L603.157 61.54H668.607L675.317 59.56V88.16Z"/>
</mask>
<path d="M61.3328 101.25C66.7594 103.01 71.0494 105.833 74.2028 109.72C77.3561 113.533 78.9328 117.897 78.9328 122.81C78.9328 127.43 77.0261 131.793 73.2128 135.9C69.3994 139.933 64.6328 143.16 58.9128 145.58C53.1928 148 47.7661 149.21 42.6328 149.21C38.9661 149.21 35.3728 149.027 31.8528 148.66C25.9861 148.293 21.4394 148.11 18.2128 148.11H3.14277V143.6L13.4828 135.46V70.56L1.82277 67.04L4.57277 61.54H18.1028C24.7761 61.54 31.3394 61.32 37.7928 60.88C42.7794 60.5867 46.4461 60.44 48.7928 60.44C53.9261 60.44 58.4361 61.3933 62.3228 63.3C66.2094 65.2067 69.2161 67.81 71.3428 71.11C73.4694 74.3367 74.5328 77.9667 74.5328 82C74.5328 85.6667 73.3228 89.1867 70.9028 92.56C68.4828 95.86 65.2928 98.7567 61.3328 101.25ZM57.2628 87.39C57.2628 81.8167 55.8328 77.3067 52.9728 73.86C50.1128 70.34 45.8594 68.58 40.2128 68.58C36.3994 68.58 32.9161 69.5333 29.7628 71.44V100.37H44.0628C48.2428 100.37 51.4694 99.27 53.7428 97.07C56.0894 94.7967 57.2628 91.57 57.2628 87.39ZM45.7128 139.64C50.6261 139.64 54.5128 138.43 57.3728 136.01C60.2328 133.517 61.6628 130.143 61.6628 125.89C61.6628 120.463 60.0861 116.1 56.9328 112.8C53.8528 109.427 49.2694 107.63 43.1828 107.41C42.6694 107.483 41.9361 107.52 40.9828 107.52H29.7628V137.11C34.2361 138.943 39.5528 139.86 45.7128 139.86V139.64ZM158.022 148H90.2619V143.49L100.602 135.35V70.56L88.9419 67.04L91.6919 61.54H127.332V66.05L116.882 74.19V141.62H143.832L160.332 117.53L164.732 119.18V149.98L158.022 148ZM244.489 148H177.059V143.49L187.399 135.35V70.78L175.739 67.04L178.489 61.54H243.389L250.099 59.56V85.96L245.699 87.61L232.389 67.81H203.679V100.7H219.189L227.329 87.28H231.839V120.17L226.339 122.92L219.299 106.97H203.679V141.62H231.839L246.799 119.73L251.199 121.38V149.98L244.489 148ZM356.291 148H319.771V143.49L330.771 135.9L322.961 116.98H287.211L279.401 135.35L297.661 142.5L294.911 148H260.701V143.49L271.701 135.02L301.621 65.06L316.031 59.45L347.821 136.23L359.041 142.5L356.291 148ZM305.471 74.41L289.961 110.71H320.431L305.471 74.41ZM403.007 142.5L400.257 148H364.617V143.49L374.957 135.13V70.67L363.297 67.04L366.047 61.54H401.687V66.05L391.237 74.41V138.76L403.007 142.5ZM451.077 148H429.737L396.737 104.66L429.847 75.73L416.977 67.04L419.727 61.54H450.637V66.05L412.577 99.38L441.397 136.56L453.827 142.5L451.077 148ZM534.23 85.96L529.83 87.61L516.3 67.81H487.81V100.7H503.32L511.46 87.28H515.97V118.19L510.47 120.94L503.54 106.97H487.81V138.1L505.63 142.5L502.88 148H461.19V143.49L471.53 135.35V70.78L459.87 67.04L462.62 61.54H527.52L534.23 59.56V85.96ZM582.337 148H546.697V143.49L557.037 135.13V70.67L545.377 67.04L548.127 61.54H583.767V66.05L573.317 74.41V138.76L585.087 142.5L582.337 148ZM675.317 88.16L670.917 89.81L655.957 67.81H643.857V138.87L655.627 142.5L652.877 148H617.237V143.49L627.577 135.35V67.81H615.807L600.847 89.81L596.447 88.16V59.56L603.157 61.54H668.607L675.317 59.56V88.16Z" fill="#000814"/>
<path d="M61.3328 101.25L60.8 100.404L58.992 101.542L61.0243 102.201L61.3328 101.25ZM74.2028 109.72L73.4262 110.35L73.4321 110.357L74.2028 109.72ZM73.2128 135.9L73.9395 136.587L73.9456 136.58L73.2128 135.9ZM58.9128 145.58L58.5231 144.659L58.9128 145.58ZM31.8528 148.66L31.9564 147.665L31.9358 147.663L31.9152 147.662L31.8528 148.66ZM3.14277 148.11H2.14277V149.11H3.14277V148.11ZM3.14277 143.6L2.52421 142.814L2.14277 143.115V143.6H3.14277ZM13.4828 135.46L14.1013 136.246L14.4828 135.945V135.46H13.4828ZM13.4828 70.56H14.4828V69.8173L13.7718 69.6027L13.4828 70.56ZM1.82277 67.04L0.928347 66.5928L0.397576 67.6543L1.53377 67.9973L1.82277 67.04ZM4.57277 61.54V60.54H3.95474L3.67835 61.0928L4.57277 61.54ZM37.7928 60.88L37.734 59.8817L37.7247 59.8823L37.7928 60.88ZM62.3228 63.3L62.7632 62.4022L62.7632 62.4022L62.3228 63.3ZM71.3428 71.11L70.5022 71.6517L70.5078 71.6603L71.3428 71.11ZM70.9028 92.56L71.7092 93.1514L71.7153 93.1429L70.9028 92.56ZM52.9728 73.86L52.1966 74.4906L52.2032 74.4986L52.9728 73.86ZM29.7628 71.44L29.2454 70.5843L28.7628 70.8761V71.44H29.7628ZM29.7628 100.37H28.7628V101.37H29.7628V100.37ZM53.7428 97.07L54.4382 97.7886L54.4386 97.7882L53.7428 97.07ZM45.7128 139.64V138.64H44.7128V139.64H45.7128ZM57.3728 136.01L58.0187 136.773L58.0244 136.769L58.0299 136.764L57.3728 136.01ZM56.9328 112.8L56.1943 113.474L56.2019 113.483L56.2098 113.491L56.9328 112.8ZM43.1828 107.41L43.2189 106.411L43.1297 106.407L43.0414 106.42L43.1828 107.41ZM29.7628 107.52V106.52H28.7628V107.52H29.7628ZM29.7628 137.11H28.7628V137.781L29.3836 138.035L29.7628 137.11ZM45.7128 139.86V140.86H46.7128V139.86H45.7128ZM61.0243 102.201C66.2936 103.91 70.411 106.634 73.4262 110.35L74.9793 109.09C71.6879 105.033 67.2253 102.11 61.6413 100.299L61.0243 102.201ZM73.4321 110.357C76.4384 113.993 77.9328 118.131 77.9328 122.81H79.9328C79.9328 117.662 78.2739 113.074 74.9734 109.083L73.4321 110.357ZM77.9328 122.81C77.9328 127.126 76.1601 131.256 72.48 135.22L73.9456 136.58C77.8921 132.33 79.9328 127.734 79.9328 122.81H77.9328ZM72.4861 135.213C68.7785 139.135 64.131 142.286 58.5231 144.659L59.3024 146.501C65.1345 144.034 70.0204 140.732 73.9394 136.587L72.4861 135.213ZM58.5231 144.659C52.9011 147.038 47.6073 148.21 42.6328 148.21V150.21C47.9249 150.21 53.4844 148.962 59.3024 146.501L58.5231 144.659ZM42.6328 148.21C38.9995 148.21 35.4408 148.028 31.9564 147.665L31.7492 149.655C35.3048 150.025 38.9327 150.21 42.6328 150.21V148.21ZM31.9152 147.662C26.0416 147.295 21.4706 147.11 18.2128 147.11V149.11C21.4083 149.11 25.9306 149.292 31.7904 149.658L31.9152 147.662ZM18.2128 147.11H3.14277V149.11H18.2128V147.11ZM4.14277 148.11V143.6H2.14277V148.11H4.14277ZM3.76133 144.386L14.1013 136.246L12.8642 134.674L2.52421 142.814L3.76133 144.386ZM14.4828 135.46V70.56H12.4828V135.46H14.4828ZM13.7718 69.6027L2.11178 66.0827L1.53377 67.9973L13.1938 71.5173L13.7718 69.6027ZM2.7172 67.4872L5.4672 61.9872L3.67835 61.0928L0.928347 66.5928L2.7172 67.4872ZM4.57277 62.54H18.1028V60.54H4.57277V62.54ZM18.1028 62.54C24.7981 62.54 31.3841 62.3193 37.8608 61.8777L37.7247 59.8823C31.2948 60.3207 24.7541 60.54 18.1028 60.54V62.54ZM37.8515 61.8783C42.8353 61.5851 46.4773 61.44 48.7928 61.44V59.44C46.4149 59.44 42.7236 59.5882 37.7341 59.8817L37.8515 61.8783ZM48.7928 61.44C53.8016 61.44 58.156 62.3697 61.8824 64.1978L62.7632 62.4022C58.7163 60.4169 54.0507 59.44 48.7928 59.44V61.44ZM61.8824 64.1978C65.623 66.0328 68.484 68.52 70.5022 71.6517L72.1833 70.5683C69.9482 67.1 66.7959 64.3805 62.7632 62.4022L61.8824 64.1978ZM70.5078 71.6603C72.522 74.7163 73.5328 78.1533 73.5328 82H75.5328C75.5328 77.7801 74.4169 73.9571 72.1777 70.5597L70.5078 71.6603ZM73.5328 82C73.5328 85.4305 72.4051 88.7503 70.0902 91.9771L71.7153 93.1429C74.2404 89.6231 75.5328 85.9029 75.5328 82H73.5328ZM70.0964 91.9686C67.7606 95.1538 64.6687 97.9679 60.8 100.404L61.8656 102.096C65.9169 99.5454 69.2049 96.5662 71.7092 93.1514L70.0964 91.9686ZM58.2628 87.39C58.2628 81.6421 56.7849 76.8881 53.7423 73.2214L52.2032 74.4986C54.8807 77.7253 56.2628 81.9912 56.2628 87.39H58.2628ZM53.7489 73.2294C50.6533 69.4195 46.0798 67.58 40.2128 67.58V69.58C45.6391 69.58 49.5722 71.2605 52.1967 74.4906L53.7489 73.2294ZM40.2128 67.58C36.2237 67.58 32.5604 68.5798 29.2454 70.5843L30.2802 72.2957C33.2718 70.4868 36.5752 69.58 40.2128 69.58V67.58ZM28.7628 71.44V100.37H30.7628V71.44H28.7628ZM29.7628 101.37H44.0628V99.37H29.7628V101.37ZM44.0628 101.37C48.4163 101.37 51.9246 100.221 54.4382 97.7886L53.0474 96.3514C51.0143 98.3188 48.0692 99.37 44.0628 99.37V101.37ZM54.4386 97.7882C57.0303 95.2775 58.2628 91.7611 58.2628 87.39H56.2628C56.2628 91.3789 55.1486 94.3158 53.047 96.3518L54.4386 97.7882ZM45.7128 140.64C50.7879 140.64 54.9283 139.388 58.0187 136.773L56.7268 135.247C54.0972 137.472 50.4643 138.64 45.7128 138.64V140.64ZM58.0299 136.764C61.1356 134.056 62.6628 130.393 62.6628 125.89H60.6628C60.6628 129.893 59.33 132.977 56.7156 135.256L58.0299 136.764ZM62.6628 125.89C62.6628 120.258 61.0197 115.63 57.6558 112.109L56.2098 113.491C59.1525 116.57 60.6628 120.669 60.6628 125.89H62.6628ZM57.6713 112.126C54.3561 108.495 49.4812 106.637 43.2189 106.411L43.1467 108.409C49.0577 108.623 53.3495 110.359 56.1943 113.474L57.6713 112.126ZM43.0414 106.42C42.5985 106.483 41.921 106.52 40.9828 106.52V108.52C41.9512 108.52 42.7403 108.483 43.3242 108.4L43.0414 106.42ZM40.9828 106.52H29.7628V108.52H40.9828V106.52ZM28.7628 107.52V137.11H30.7628V107.52H28.7628ZM29.3836 138.035C34.0053 139.929 39.4569 140.86 45.7128 140.86V138.86C39.6486 138.86 34.4669 137.957 30.142 136.185L29.3836 138.035ZM46.7128 139.86V139.64H44.7128V139.86H46.7128ZM158.022 148L158.305 147.041L158.166 147H158.022V148ZM90.2619 148H89.2619V149H90.2619V148ZM90.2619 143.49L89.6434 142.704L89.2619 143.005V143.49H90.2619ZM100.602 135.35L101.22 136.136L101.602 135.835V135.35H100.602ZM100.602 70.56H101.602V69.8173L100.891 69.6027L100.602 70.56ZM88.9419 67.04L88.0475 66.5928L87.5167 67.6543L88.6529 67.9973L88.9419 67.04ZM91.6919 61.54V60.54H91.0739L90.7975 61.0928L91.6919 61.54ZM127.332 61.54H128.332V60.54H127.332V61.54ZM127.332 66.05L127.946 66.8389L128.332 66.5386V66.05H127.332ZM116.882 74.19L116.267 73.4011L115.882 73.7014V74.19H116.882ZM116.882 141.62H115.882V142.62H116.882V141.62ZM143.832 141.62V142.62H144.359L144.657 142.185L143.832 141.62ZM160.332 117.53L160.683 116.594L159.95 116.319L159.507 116.965L160.332 117.53ZM164.732 119.18H165.732V118.487L165.083 118.244L164.732 119.18ZM164.732 149.98L164.449 150.939L165.732 151.318V149.98H164.732ZM158.022 147H90.2619V149H158.022V147ZM91.2619 148V143.49H89.2619V148H91.2619ZM90.8805 144.276L101.22 136.136L99.9834 134.564L89.6434 142.704L90.8805 144.276ZM101.602 135.35V70.56H99.6019V135.35H101.602ZM100.891 69.6027L89.2309 66.0827L88.6529 67.9973L100.313 71.5173L100.891 69.6027ZM89.8363 67.4872L92.5863 61.9872L90.7975 61.0928L88.0475 66.5928L89.8363 67.4872ZM91.6919 62.54H127.332V60.54H91.6919V62.54ZM126.332 61.54V66.05H128.332V61.54H126.332ZM126.717 65.2611L116.267 73.4011L117.496 74.9789L127.946 66.8389L126.717 65.2611ZM115.882 74.19V141.62H117.882V74.19H115.882ZM116.882 142.62H143.832V140.62H116.882V142.62ZM144.657 142.185L161.157 118.095L159.507 116.965L143.007 141.055L144.657 142.185ZM159.981 118.466L164.381 120.116L165.083 118.244L160.683 116.594L159.981 118.466ZM163.732 119.18V149.98H165.732V119.18H163.732ZM165.015 149.021L158.305 147.041L157.739 148.959L164.449 150.939L165.015 149.021ZM244.489 148L244.772 147.041L244.633 147H244.489V148ZM177.059 148H176.059V149H177.059V148ZM177.059 143.49L176.44 142.704L176.059 143.005V143.49H177.059ZM187.399 135.35L188.017 136.136L188.399 135.835V135.35H187.399ZM187.399 70.78H188.399V70.0506L187.704 69.8278L187.399 70.78ZM175.739 67.04L174.844 66.5928L174.323 67.636L175.433 67.9922L175.739 67.04ZM178.489 61.54V60.54H177.871L177.594 61.0928L178.489 61.54ZM243.389 61.54V62.54H243.533L243.672 62.4991L243.389 61.54ZM250.099 59.56H251.099V58.2223L249.816 58.6009L250.099 59.56ZM250.099 85.96L250.45 86.8963L251.099 86.653V85.96H250.099ZM245.699 87.61L244.869 88.1679L245.31 88.8239L246.05 88.5463L245.699 87.61ZM232.389 67.81L233.219 67.2521L232.922 66.81H232.389V67.81ZM203.679 67.81V66.81H202.679V67.81H203.679ZM203.679 100.7H202.679V101.7H203.679V100.7ZM219.189 100.7V101.7H219.752L220.044 101.219L219.189 100.7ZM227.329 87.28V86.28H226.766L226.474 86.7614L227.329 87.28ZM231.839 87.28H232.839V86.28H231.839V87.28ZM231.839 120.17L232.286 121.064L232.839 120.788V120.17H231.839ZM226.339 122.92L225.424 123.324L225.848 124.284L226.786 123.814L226.339 122.92ZM219.299 106.97L220.214 106.566L219.95 105.97H219.299V106.97ZM203.679 106.97V105.97H202.679V106.97H203.679ZM203.679 141.62H202.679V142.62H203.679V141.62ZM231.839 141.62V142.62H232.367L232.664 142.184L231.839 141.62ZM246.799 119.73L247.15 118.794L246.416 118.518L245.973 119.166L246.799 119.73ZM251.199 121.38H252.199V120.687L251.55 120.444L251.199 121.38ZM251.199 149.98L250.916 150.939L252.199 151.318V149.98H251.199ZM244.489 147H177.059V149H244.489V147ZM178.059 148V143.49H176.059V148H178.059ZM177.677 144.276L188.017 136.136L186.78 134.564L176.44 142.704L177.677 144.276ZM188.399 135.35V70.78H186.399V135.35H188.399ZM187.704 69.8278L176.044 66.0878L175.433 67.9922L187.093 71.7322L187.704 69.8278ZM176.633 67.4872L179.383 61.9872L177.594 61.0928L174.844 66.5928L176.633 67.4872ZM178.489 62.54H243.389V60.54H178.489V62.54ZM243.672 62.4991L250.382 60.5191L249.816 58.6009L243.106 60.5809L243.672 62.4991ZM249.099 59.56V85.96H251.099V59.56H249.099ZM249.748 85.0237L245.348 86.6737L246.05 88.5463L250.45 86.8963L249.748 85.0237ZM246.529 87.0521L233.219 67.2521L231.559 68.3679L244.869 88.1679L246.529 87.0521ZM232.389 66.81H203.679V68.81H232.389V66.81ZM202.679 67.81V100.7H204.679V67.81H202.679ZM203.679 101.7H219.189V99.7H203.679V101.7ZM220.044 101.219L228.184 87.7986L226.474 86.7614L218.334 100.181L220.044 101.219ZM227.329 88.28H231.839V86.28H227.329V88.28ZM230.839 87.28V120.17H232.839V87.28H230.839ZM231.392 119.276L225.892 122.026L226.786 123.814L232.286 121.064L231.392 119.276ZM227.254 122.516L220.214 106.566L218.384 107.374L225.424 123.324L227.254 122.516ZM219.299 105.97H203.679V107.97H219.299V105.97ZM202.679 106.97V141.62H204.679V106.97H202.679ZM203.679 142.62H231.839V140.62H203.679V142.62ZM232.664 142.184L247.624 120.294L245.973 119.166L231.013 141.056L232.664 142.184ZM246.448 120.666L250.848 122.316L251.55 120.444L247.15 118.794L246.448 120.666ZM250.199 121.38V149.98H252.199V121.38H250.199ZM251.482 149.021L244.772 147.041L244.206 148.959L250.916 150.939L251.482 149.021ZM356.291 148V149H356.909L357.185 148.447L356.291 148ZM319.771 148H318.771V149H319.771V148ZM319.771 143.49L319.203 142.667L318.771 142.965V143.49H319.771ZM330.771 135.9L331.339 136.723L332.003 136.265L331.695 135.518L330.771 135.9ZM322.961 116.98L323.885 116.598L323.63 115.98H322.961V116.98ZM287.211 116.98V115.98H286.549L286.291 116.589L287.211 116.98ZM279.401 135.35L278.481 134.959L278.078 135.906L279.036 136.281L279.401 135.35ZM297.661 142.5L298.555 142.947L299.045 141.968L298.026 141.569L297.661 142.5ZM294.911 148V149H295.529L295.805 148.447L294.911 148ZM260.701 148H259.701V149H260.701V148ZM260.701 143.49L260.091 142.698L259.701 142.998V143.49H260.701ZM271.701 135.02L272.311 135.812L272.518 135.653L272.62 135.413L271.701 135.02ZM301.621 65.06L301.258 64.1281L300.867 64.2805L300.701 64.6668L301.621 65.06ZM316.031 59.45L316.955 59.0674L316.58 58.163L315.668 58.5181L316.031 59.45ZM347.821 136.23L346.897 136.613L347.03 136.933L347.333 137.103L347.821 136.23ZM359.041 142.5L359.935 142.947L360.362 142.093L359.529 141.627L359.041 142.5ZM305.471 74.41L306.395 74.029L305.488 71.8259L304.551 74.0171L305.471 74.41ZM289.961 110.71L289.041 110.317L288.446 111.71H289.961V110.71ZM320.431 110.71V111.71H321.925L321.355 110.329L320.431 110.71ZM356.291 147H319.771V149H356.291V147ZM320.771 148V143.49H318.771V148H320.771ZM320.339 144.313L331.339 136.723L330.203 135.077L319.203 142.667L320.339 144.313ZM331.695 135.518L323.885 116.598L322.037 117.362L329.847 136.282L331.695 135.518ZM322.961 115.98H287.211V117.98H322.961V115.98ZM286.291 116.589L278.481 134.959L280.321 135.741L288.131 117.371L286.291 116.589ZM279.036 136.281L297.296 143.431L298.026 141.569L279.766 134.419L279.036 136.281ZM296.766 142.053L294.016 147.553L295.805 148.447L298.555 142.947L296.766 142.053ZM294.911 147H260.701V149H294.911V147ZM261.701 148V143.49H259.701V148H261.701ZM261.311 144.282L272.311 135.812L271.091 134.228L260.091 142.698L261.311 144.282ZM272.62 135.413L302.54 65.4532L300.701 64.6668L270.781 134.627L272.62 135.413ZM301.984 65.9919L316.394 60.3819L315.668 58.5181L301.258 64.1281L301.984 65.9919ZM315.107 59.8325L346.897 136.613L348.745 135.847L316.955 59.0674L315.107 59.8325ZM347.333 137.103L358.553 143.373L359.529 141.627L348.309 135.357L347.333 137.103ZM358.146 142.053L355.396 147.553L357.185 148.447L359.935 142.947L358.146 142.053ZM304.551 74.0171L289.041 110.317L290.88 111.103L306.39 74.8029L304.551 74.0171ZM289.961 111.71H320.431V109.71H289.961V111.71ZM321.355 110.329L306.395 74.029L304.546 74.791L319.506 111.091L321.355 110.329ZM403.007 142.5L403.902 142.947L404.425 141.901L403.31 141.547L403.007 142.5ZM400.257 148V149H400.875L401.152 148.447L400.257 148ZM364.617 148H363.617V149H364.617V148ZM364.617 143.49L363.989 142.712L363.617 143.013V143.49H364.617ZM374.957 135.13L375.586 135.908L375.957 135.607V135.13H374.957ZM374.957 70.67H375.957V69.934L375.255 69.7152L374.957 70.67ZM363.297 67.04L362.403 66.5928L361.877 67.6451L363 67.9948L363.297 67.04ZM366.047 61.54V60.54H365.429L365.153 61.0928L366.047 61.54ZM401.687 61.54H402.687V60.54H401.687V61.54ZM401.687 66.05L402.312 66.8309L402.687 66.5306V66.05H401.687ZM391.237 74.41L390.613 73.6291L390.237 73.9294V74.41H391.237ZM391.237 138.76H390.237V139.492L390.935 139.713L391.237 138.76ZM451.077 148V149H451.695L451.972 148.447L451.077 148ZM429.737 148L428.942 148.606L429.242 149H429.737V148ZM396.737 104.66L396.079 103.907L395.375 104.522L395.942 105.266L396.737 104.66ZM429.847 75.73L430.505 76.483L431.484 75.6282L430.407 74.9012L429.847 75.73ZM416.977 67.04L416.083 66.5928L415.691 67.3777L416.418 67.8688L416.977 67.04ZM419.727 61.54V60.54H419.109L418.833 61.0928L419.727 61.54ZM450.637 61.54H451.637V60.54H450.637V61.54ZM450.637 66.05L451.296 66.8023L451.637 66.5035V66.05H450.637ZM412.577 99.38L411.919 98.6277L411.21 99.2482L411.787 99.9926L412.577 99.38ZM441.397 136.56L440.607 137.173L440.752 137.36L440.966 137.462L441.397 136.56ZM453.827 142.5L454.722 142.947L455.177 142.037L454.259 141.598L453.827 142.5ZM402.113 142.053L399.363 147.553L401.152 148.447L403.902 142.947L402.113 142.053ZM400.257 147H364.617V149H400.257V147ZM365.617 148V143.49H363.617V148H365.617ZM365.246 144.268L375.586 135.908L374.329 134.352L363.989 142.712L365.246 144.268ZM375.957 135.13V70.67H373.957V135.13H375.957ZM375.255 69.7152L363.595 66.0852L363 67.9948L374.66 71.6248L375.255 69.7152ZM364.192 67.4872L366.942 61.9872L365.153 61.0928L362.403 66.5928L364.192 67.4872ZM366.047 62.54H401.687V60.54H366.047V62.54ZM400.687 61.54V66.05H402.687V61.54H400.687ZM401.063 65.2691L390.613 73.6291L391.862 75.1909L402.312 66.8309L401.063 65.2691ZM390.237 74.41V138.76H392.237V74.41H390.237ZM390.935 139.713L402.705 143.453L403.31 141.547L391.54 137.807L390.935 139.713ZM451.077 147H429.737V149H451.077V147ZM430.533 147.394L397.533 104.054L395.942 105.266L428.942 148.606L430.533 147.394ZM397.395 105.413L430.505 76.483L429.189 74.977L396.079 103.907L397.395 105.413ZM430.407 74.9012L417.537 66.2112L416.418 67.8688L429.288 76.5588L430.407 74.9012ZM417.872 67.4872L420.622 61.9872L418.833 61.0928L416.083 66.5928L417.872 67.4872ZM419.727 62.54H450.637V60.54H419.727V62.54ZM449.637 61.54V66.05H451.637V61.54H449.637ZM449.979 65.2977L411.919 98.6277L413.236 100.132L451.296 66.8023L449.979 65.2977ZM411.787 99.9926L440.607 137.173L442.188 135.947L413.368 98.7674L411.787 99.9926ZM440.966 137.462L453.396 143.402L454.259 141.598L441.829 135.658L440.966 137.462ZM452.933 142.053L450.183 147.553L451.972 148.447L454.722 142.947L452.933 142.053ZM534.23 85.96L534.581 86.8963L535.23 86.653V85.96H534.23ZM529.83 87.61L529.004 88.1742L529.446 88.8217L530.181 88.5463L529.83 87.61ZM516.3 67.81L517.125 67.2458L516.827 66.81H516.3V67.81ZM487.81 67.81V66.81H486.81V67.81H487.81ZM487.81 100.7H486.81V101.7H487.81V100.7ZM503.32 100.7V101.7H503.883L504.175 101.219L503.32 100.7ZM511.46 87.28V86.28H510.897L510.605 86.7614L511.46 87.28ZM515.97 87.28H516.97V86.28H515.97V87.28ZM515.97 118.19L516.417 119.084L516.97 118.808V118.19H515.97ZM510.47 120.94L509.574 121.384L510.02 122.283L510.917 121.834L510.47 120.94ZM503.54 106.97L504.435 106.526L504.16 105.97H503.54V106.97ZM487.81 106.97V105.97H486.81V106.97H487.81ZM487.81 138.1H486.81V138.883L487.57 139.071L487.81 138.1ZM505.63 142.5L506.524 142.947L507.083 141.829L505.869 141.529L505.63 142.5ZM502.88 148V149H503.498L503.774 148.447L502.88 148ZM461.19 148H460.19V149H461.19V148ZM461.19 143.49L460.571 142.704L460.19 143.005V143.49H461.19ZM471.53 135.35L472.148 136.136L472.53 135.835V135.35H471.53ZM471.53 70.78H472.53V70.0506L471.835 69.8278L471.53 70.78ZM459.87 67.04L458.975 66.5928L458.454 67.636L459.564 67.9922L459.87 67.04ZM462.62 61.54V60.54H462.002L461.725 61.0928L462.62 61.54ZM527.52 61.54V62.54H527.664L527.803 62.4991L527.52 61.54ZM534.23 59.56H535.23V58.2223L533.947 58.6009L534.23 59.56ZM533.879 85.0237L529.479 86.6737L530.181 88.5463L534.581 86.8963L533.879 85.0237ZM530.655 87.0458L517.125 67.2458L515.474 68.3742L529.004 88.1742L530.655 87.0458ZM516.3 66.81H487.81V68.81H516.3V66.81ZM486.81 67.81V100.7H488.81V67.81H486.81ZM487.81 101.7H503.32V99.7H487.81V101.7ZM504.175 101.219L512.315 87.7986L510.605 86.7614L502.465 100.181L504.175 101.219ZM511.46 88.28H515.97V86.28H511.46V88.28ZM514.97 87.28V118.19H516.97V87.28H514.97ZM515.522 117.296L510.022 120.046L510.917 121.834L516.417 119.084L515.522 117.296ZM511.365 120.496L504.435 106.526L502.644 107.414L509.574 121.384L511.365 120.496ZM503.54 105.97H487.81V107.97H503.54V105.97ZM486.81 106.97V138.1H488.81V106.97H486.81ZM487.57 139.071L505.39 143.471L505.869 141.529L488.049 137.129L487.57 139.071ZM504.735 142.053L501.985 147.553L503.774 148.447L506.524 142.947L504.735 142.053ZM502.88 147H461.19V149H502.88V147ZM462.19 148V143.49H460.19V148H462.19ZM461.808 144.276L472.148 136.136L470.911 134.564L460.571 142.704L461.808 144.276ZM472.53 135.35V70.78H470.53V135.35H472.53ZM471.835 69.8278L460.175 66.0878L459.564 67.9922L471.224 71.7322L471.835 69.8278ZM460.764 67.4872L463.514 61.9872L461.725 61.0928L458.975 66.5928L460.764 67.4872ZM462.62 62.54H527.52V60.54H462.62V62.54ZM527.803 62.4991L534.513 60.5191L533.947 58.6009L527.237 60.5809L527.803 62.4991ZM533.23 59.56V85.96H535.23V59.56H533.23ZM582.337 148V149H582.955L583.232 148.447L582.337 148ZM546.697 148H545.697V149H546.697V148ZM546.697 143.49L546.069 142.712L545.697 143.013V143.49H546.697ZM557.037 135.13L557.666 135.908L558.037 135.607V135.13H557.037ZM557.037 70.67H558.037V69.934L557.335 69.7152L557.037 70.67ZM545.377 67.04L544.483 66.5928L543.957 67.6451L545.08 67.9948L545.377 67.04ZM548.127 61.54V60.54H547.509L547.233 61.0928L548.127 61.54ZM583.767 61.54H584.767V60.54H583.767V61.54ZM583.767 66.05L584.392 66.8309L584.767 66.5306V66.05H583.767ZM573.317 74.41L572.693 73.6291L572.317 73.9294V74.41H573.317ZM573.317 138.76H572.317V139.492L573.015 139.713L573.317 138.76ZM585.087 142.5L585.982 142.947L586.505 141.901L585.39 141.547L585.087 142.5ZM582.337 147H546.697V149H582.337V147ZM547.697 148V143.49H545.697V148H547.697ZM547.326 144.268L557.666 135.908L556.409 134.352L546.069 142.712L547.326 144.268ZM558.037 135.13V70.67H556.037V135.13H558.037ZM557.335 69.7152L545.675 66.0852L545.08 67.9948L556.74 71.6248L557.335 69.7152ZM546.272 67.4872L549.022 61.9872L547.233 61.0928L544.483 66.5928L546.272 67.4872ZM548.127 62.54H583.767V60.54H548.127V62.54ZM582.767 61.54V66.05H584.767V61.54H582.767ZM583.143 65.2691L572.693 73.6291L573.942 75.1909L584.392 66.8309L583.143 65.2691ZM572.317 74.41V138.76H574.317V74.41H572.317ZM573.015 139.713L584.785 143.453L585.39 141.547L573.62 137.807L573.015 139.713ZM584.193 142.053L581.443 147.553L583.232 148.447L585.982 142.947L584.193 142.053ZM675.317 88.16L675.668 89.0963L676.317 88.853V88.16H675.317ZM670.917 89.81L670.09 90.3723L670.532 91.0223L671.268 90.7463L670.917 89.81ZM655.957 67.81L656.784 67.2477L656.486 66.81H655.957V67.81ZM643.857 67.81V66.81H642.857V67.81H643.857ZM643.857 138.87H642.857V139.608L643.562 139.826L643.857 138.87ZM655.627 142.5L656.521 142.947L657.049 141.892L655.921 141.544L655.627 142.5ZM652.877 148V149H653.495L653.771 148.447L652.877 148ZM617.237 148H616.237V149H617.237V148ZM617.237 143.49L616.618 142.704L616.237 143.005V143.49H617.237ZM627.577 135.35L628.195 136.136L628.577 135.835V135.35H627.577ZM627.577 67.81H628.577V66.81H627.577V67.81ZM615.807 67.81V66.81H615.277L614.98 67.2477L615.807 67.81ZM600.847 89.81L600.496 90.7463L601.232 91.0223L601.674 90.3723L600.847 89.81ZM596.447 88.16H595.447V88.853L596.096 89.0963L596.447 88.16ZM596.447 59.56L596.73 58.6009L595.447 58.2223V59.56H596.447ZM603.157 61.54L602.874 62.4991L603.012 62.54H603.157V61.54ZM668.607 61.54V62.54H668.751L668.89 62.4991L668.607 61.54ZM675.317 59.56H676.317V58.2223L675.034 58.6009L675.317 59.56ZM674.966 87.2237L670.566 88.8737L671.268 90.7463L675.668 89.0963L674.966 87.2237ZM671.744 89.2477L656.784 67.2477L655.13 68.3723L670.09 90.3723L671.744 89.2477ZM655.957 66.81H643.857V68.81H655.957V66.81ZM642.857 67.81V138.87H644.857V67.81H642.857ZM643.562 139.826L655.332 143.456L655.921 141.544L644.151 137.914L643.562 139.826ZM654.732 142.053L651.982 147.553L653.771 148.447L656.521 142.947L654.732 142.053ZM652.877 147H617.237V149H652.877V147ZM618.237 148V143.49H616.237V148H618.237ZM617.855 144.276L628.195 136.136L626.958 134.564L616.618 142.704L617.855 144.276ZM628.577 135.35V67.81H626.577V135.35H628.577ZM627.577 66.81H615.807V68.81H627.577V66.81ZM614.98 67.2477L600.02 89.2477L601.674 90.3723L616.634 68.3723L614.98 67.2477ZM601.198 88.8737L596.798 87.2237L596.096 89.0963L600.496 90.7463L601.198 88.8737ZM597.447 88.16V59.56H595.447V88.16H597.447ZM596.164 60.5191L602.874 62.4991L603.44 60.5809L596.73 58.6009L596.164 60.5191ZM603.157 62.54H668.607V60.54H603.157V62.54ZM668.89 62.4991L675.6 60.5191L675.034 58.6009L668.324 60.5809L668.89 62.4991ZM674.317 59.56V88.16H676.317V59.56H674.317Z" fill="#001D3D" mask="url(#path-1-outside-1_0_1)"/>
<path d="M61.3328 101.25L60.8 100.404L58.992 101.542L61.0243 102.201L61.3328 101.25ZM74.2028 109.72L73.4262 110.35L73.4321 110.357L74.2028 109.72ZM73.2128 135.9L73.9395 136.587L73.9456 136.58L73.2128 135.9ZM58.9128 145.58L58.5231 144.659L58.9128 145.58ZM31.8528 148.66L31.9564 147.665L31.9358 147.663L31.9152 147.662L31.8528 148.66ZM3.14277 148.11H2.14277V149.11H3.14277V148.11ZM3.14277 143.6L2.52421 142.814L2.14277 143.115V143.6H3.14277ZM13.4828 135.46L14.1013 136.246L14.4828 135.945V135.46H13.4828ZM13.4828 70.56H14.4828V69.8173L13.7718 69.6027L13.4828 70.56ZM1.82277 67.04L0.928347 66.5928L0.397576 67.6543L1.53377 67.9973L1.82277 67.04ZM4.57277 61.54V60.54H3.95474L3.67835 61.0928L4.57277 61.54ZM37.7928 60.88L37.734 59.8817L37.7247 59.8823L37.7928 60.88ZM62.3228 63.3L62.7632 62.4022L62.7632 62.4022L62.3228 63.3ZM71.3428 71.11L70.5022 71.6517L70.5078 71.6603L71.3428 71.11ZM70.9028 92.56L71.7092 93.1514L71.7153 93.1429L70.9028 92.56ZM52.9728 73.86L52.1966 74.4906L52.2032 74.4986L52.9728 73.86ZM29.7628 71.44L29.2454 70.5843L28.7628 70.8761V71.44H29.7628ZM29.7628 100.37H28.7628V101.37H29.7628V100.37ZM53.7428 97.07L54.4382 97.7886L54.4386 97.7882L53.7428 97.07ZM45.7128 139.64V138.64H44.7128V139.64H45.7128ZM57.3728 136.01L58.0187 136.773L58.0244 136.769L58.0299 136.764L57.3728 136.01ZM56.9328 112.8L56.1943 113.474L56.2019 113.483L56.2098 113.491L56.9328 112.8ZM43.1828 107.41L43.2189 106.411L43.1297 106.407L43.0414 106.42L43.1828 107.41ZM29.7628 107.52V106.52H28.7628V107.52H29.7628ZM29.7628 137.11H28.7628V137.781L29.3836 138.035L29.7628 137.11ZM45.7128 139.86V140.86H46.7128V139.86H45.7128ZM61.0243 102.201C66.2936 103.91 70.411 106.634 73.4262 110.35L74.9793 109.09C71.6879 105.033 67.2253 102.11 61.6413 100.299L61.0243 102.201ZM73.4321 110.357C76.4384 113.993 77.9328 118.131 77.9328 122.81H79.9328C79.9328 117.662 78.2739 113.074 74.9734 109.083L73.4321 110.357ZM77.9328 122.81C77.9328 127.126 76.1601 131.256 72.48 135.22L73.9456 136.58C77.8921 132.33 79.9328 127.734 79.9328 122.81H77.9328ZM72.4861 135.213C68.7785 139.135 64.131 142.286 58.5231 144.659L59.3024 146.501C65.1345 144.034 70.0204 140.732 73.9394 136.587L72.4861 135.213ZM58.5231 144.659C52.9011 147.038 47.6073 148.21 42.6328 148.21V150.21C47.9249 150.21 53.4844 148.962 59.3024 146.501L58.5231 144.659ZM42.6328 148.21C38.9995 148.21 35.4408 148.028 31.9564 147.665L31.7492 149.655C35.3048 150.025 38.9327 150.21 42.6328 150.21V148.21ZM31.9152 147.662C26.0416 147.295 21.4706 147.11 18.2128 147.11V149.11C21.4083 149.11 25.9306 149.292 31.7904 149.658L31.9152 147.662ZM18.2128 147.11H3.14277V149.11H18.2128V147.11ZM4.14277 148.11V143.6H2.14277V148.11H4.14277ZM3.76133 144.386L14.1013 136.246L12.8642 134.674L2.52421 142.814L3.76133 144.386ZM14.4828 135.46V70.56H12.4828V135.46H14.4828ZM13.7718 69.6027L2.11178 66.0827L1.53377 67.9973L13.1938 71.5173L13.7718 69.6027ZM2.7172 67.4872L5.4672 61.9872L3.67835 61.0928L0.928347 66.5928L2.7172 67.4872ZM4.57277 62.54H18.1028V60.54H4.57277V62.54ZM18.1028 62.54C24.7981 62.54 31.3841 62.3193 37.8608 61.8777L37.7247 59.8823C31.2948 60.3207 24.7541 60.54 18.1028 60.54V62.54ZM37.8515 61.8783C42.8353 61.5851 46.4773 61.44 48.7928 61.44V59.44C46.4149 59.44 42.7236 59.5882 37.7341 59.8817L37.8515 61.8783ZM48.7928 61.44C53.8016 61.44 58.156 62.3697 61.8824 64.1978L62.7632 62.4022C58.7163 60.4169 54.0507 59.44 48.7928 59.44V61.44ZM61.8824 64.1978C65.623 66.0328 68.484 68.52 70.5022 71.6517L72.1833 70.5683C69.9482 67.1 66.7959 64.3805 62.7632 62.4022L61.8824 64.1978ZM70.5078 71.6603C72.522 74.7163 73.5328 78.1533 73.5328 82H75.5328C75.5328 77.7801 74.4169 73.9571 72.1777 70.5597L70.5078 71.6603ZM73.5328 82C73.5328 85.4305 72.4051 88.7503 70.0902 91.9771L71.7153 93.1429C74.2404 89.6231 75.5328 85.9029 75.5328 82H73.5328ZM70.0964 91.9686C67.7606 95.1538 64.6687 97.9679 60.8 100.404L61.8656 102.096C65.9169 99.5454 69.2049 96.5662 71.7092 93.1514L70.0964 91.9686ZM58.2628 87.39C58.2628 81.6421 56.7849 76.8881 53.7423 73.2214L52.2032 74.4986C54.8807 77.7253 56.2628 81.9912 56.2628 87.39H58.2628ZM53.7489 73.2294C50.6533 69.4195 46.0798 67.58 40.2128 67.58V69.58C45.6391 69.58 49.5722 71.2605 52.1967 74.4906L53.7489 73.2294ZM40.2128 67.58C36.2237 67.58 32.5604 68.5798 29.2454 70.5843L30.2802 72.2957C33.2718 70.4868 36.5752 69.58 40.2128 69.58V67.58ZM28.7628 71.44V100.37H30.7628V71.44H28.7628ZM29.7628 101.37H44.0628V99.37H29.7628V101.37ZM44.0628 101.37C48.4163 101.37 51.9246 100.221 54.4382 97.7886L53.0474 96.3514C51.0143 98.3188 48.0692 99.37 44.0628 99.37V101.37ZM54.4386 97.7882C57.0303 95.2775 58.2628 91.7611 58.2628 87.39H56.2628C56.2628 91.3789 55.1486 94.3158 53.047 96.3518L54.4386 97.7882ZM45.7128 140.64C50.7879 140.64 54.9283 139.388 58.0187 136.773L56.7268 135.247C54.0972 137.472 50.4643 138.64 45.7128 138.64V140.64ZM58.0299 136.764C61.1356 134.056 62.6628 130.393 62.6628 125.89H60.6628C60.6628 129.893 59.33 132.977 56.7156 135.256L58.0299 136.764ZM62.6628 125.89C62.6628 120.258 61.0197 115.63 57.6558 112.109L56.2098 113.491C59.1525 116.57 60.6628 120.669 60.6628 125.89H62.6628ZM57.6713 112.126C54.3561 108.495 49.4812 106.637 43.2189 106.411L43.1467 108.409C49.0577 108.623 53.3495 110.359 56.1943 113.474L57.6713 112.126ZM43.0414 106.42C42.5985 106.483 41.921 106.52 40.9828 106.52V108.52C41.9512 108.52 42.7403 108.483 43.3242 108.4L43.0414 106.42ZM40.9828 106.52H29.7628V108.52H40.9828V106.52ZM28.7628 107.52V137.11H30.7628V107.52H28.7628ZM29.3836 138.035C34.0053 139.929 39.4569 140.86 45.7128 140.86V138.86C39.6486 138.86 34.4669 137.957 30.142 136.185L29.3836 138.035ZM46.7128 139.86V139.64H44.7128V139.86H46.7128ZM158.022 148L158.305 147.041L158.166 147H158.022V148ZM90.2619 148H89.2619V149H90.2619V148ZM90.2619 143.49L89.6434 142.704L89.2619 143.005V143.49H90.2619ZM100.602 135.35L101.22 136.136L101.602 135.835V135.35H100.602ZM100.602 70.56H101.602V69.8173L100.891 69.6027L100.602 70.56ZM88.9419 67.04L88.0475 66.5928L87.5167 67.6543L88.6529 67.9973L88.9419 67.04ZM91.6919 61.54V60.54H91.0739L90.7975 61.0928L91.6919 61.54ZM127.332 61.54H128.332V60.54H127.332V61.54ZM127.332 66.05L127.946 66.8389L128.332 66.5386V66.05H127.332ZM116.882 74.19L116.267 73.4011L115.882 73.7014V74.19H116.882ZM116.882 141.62H115.882V142.62H116.882V141.62ZM143.832 141.62V142.62H144.359L144.657 142.185L143.832 141.62ZM160.332 117.53L160.683 116.594L159.95 116.319L159.507 116.965L160.332 117.53ZM164.732 119.18H165.732V118.487L165.083 118.244L164.732 119.18ZM164.732 149.98L164.449 150.939L165.732 151.318V149.98H164.732ZM158.022 147H90.2619V149H158.022V147ZM91.2619 148V143.49H89.2619V148H91.2619ZM90.8805 144.276L101.22 136.136L99.9834 134.564L89.6434 142.704L90.8805 144.276ZM101.602 135.35V70.56H99.6019V135.35H101.602ZM100.891 69.6027L89.2309 66.0827L88.6529 67.9973L100.313 71.5173L100.891 69.6027ZM89.8363 67.4872L92.5863 61.9872L90.7975 61.0928L88.0475 66.5928L89.8363 67.4872ZM91.6919 62.54H127.332V60.54H91.6919V62.54ZM126.332 61.54V66.05H128.332V61.54H126.332ZM126.717 65.2611L116.267 73.4011L117.496 74.9789L127.946 66.8389L126.717 65.2611ZM115.882 74.19V141.62H117.882V74.19H115.882ZM116.882 142.62H143.832V140.62H116.882V142.62ZM144.657 142.185L161.157 118.095L159.507 116.965L143.007 141.055L144.657 142.185ZM159.981 118.466L164.381 120.116L165.083 118.244L160.683 116.594L159.981 118.466ZM163.732 119.18V149.98H165.732V119.18H163.732ZM165.015 149.021L158.305 147.041L157.739 148.959L164.449 150.939L165.015 149.021ZM244.489 148L244.772 147.041L244.633 147H244.489V148ZM177.059 148H176.059V149H177.059V148ZM177.059 143.49L176.44 142.704L176.059 143.005V143.49H177.059ZM187.399 135.35L188.017 136.136L188.399 135.835V135.35H187.399ZM187.399 70.78H188.399V70.0506L187.704 69.8278L187.399 70.78ZM175.739 67.04L174.844 66.5928L174.323 67.636L175.433 67.9922L175.739 67.04ZM178.489 61.54V60.54H177.871L177.594 61.0928L178.489 61.54ZM243.389 61.54V62.54H243.533L243.672 62.4991L243.389 61.54ZM250.099 59.56H251.099V58.2223L249.816 58.6009L250.099 59.56ZM250.099 85.96L250.45 86.8963L251.099 86.653V85.96H250.099ZM245.699 87.61L244.869 88.1679L245.31 88.8239L246.05 88.5463L245.699 87.61ZM232.389 67.81L233.219 67.2521L232.922 66.81H232.389V67.81ZM203.679 67.81V66.81H202.679V67.81H203.679ZM203.679 100.7H202.679V101.7H203.679V100.7ZM219.189 100.7V101.7H219.752L220.044 101.219L219.189 100.7ZM227.329 87.28V86.28H226.766L226.474 86.7614L227.329 87.28ZM231.839 87.28H232.839V86.28H231.839V87.28ZM231.839 120.17L232.286 121.064L232.839 120.788V120.17H231.839ZM226.339 122.92L225.424 123.324L225.848 124.284L226.786 123.814L226.339 122.92ZM219.299 106.97L220.214 106.566L219.95 105.97H219.299V106.97ZM203.679 106.97V105.97H202.679V106.97H203.679ZM203.679 141.62H202.679V142.62H203.679V141.62ZM231.839 141.62V142.62H232.367L232.664 142.184L231.839 141.62ZM246.799 119.73L247.15 118.794L246.416 118.518L245.973 119.166L246.799 119.73ZM251.199 121.38H252.199V120.687L251.55 120.444L251.199 121.38ZM251.199 149.98L250.916 150.939L252.199 151.318V149.98H251.199ZM244.489 147H177.059V149H244.489V147ZM178.059 148V143.49H176.059V148H178.059ZM177.677 144.276L188.017 136.136L186.78 134.564L176.44 142.704L177.677 144.276ZM188.399 135.35V70.78H186.399V135.35H188.399ZM187.704 69.8278L176.044 66.0878L175.433 67.9922L187.093 71.7322L187.704 69.8278ZM176.633 67.4872L179.383 61.9872L177.594 61.0928L174.844 66.5928L176.633 67.4872ZM178.489 62.54H243.389V60.54H178.489V62.54ZM243.672 62.4991L250.382 60.5191L249.816 58.6009L243.106 60.5809L243.672 62.4991ZM249.099 59.56V85.96H251.099V59.56H249.099ZM249.748 85.0237L245.348 86.6737L246.05 88.5463L250.45 86.8963L249.748 85.0237ZM246.529 87.0521L233.219 67.2521L231.559 68.3679L244.869 88.1679L246.529 87.0521ZM232.389 66.81H203.679V68.81H232.389V66.81ZM202.679 67.81V100.7H204.679V67.81H202.679ZM203.679 101.7H219.189V99.7H203.679V101.7ZM220.044 101.219L228.184 87.7986L226.474 86.7614L218.334 100.181L220.044 101.219ZM227.329 88.28H231.839V86.28H227.329V88.28ZM230.839 87.28V120.17H232.839V87.28H230.839ZM231.392 119.276L225.892 122.026L226.786 123.814L232.286 121.064L231.392 119.276ZM227.254 122.516L220.214 106.566L218.384 107.374L225.424 123.324L227.254 122.516ZM219.299 105.97H203.679V107.97H219.299V105.97ZM202.679 106.97V141.62H204.679V106.97H202.679ZM203.679 142.62H231.839V140.62H203.679V142.62ZM232.664 142.184L247.624 120.294L245.973 119.166L231.013 141.056L232.664 142.184ZM246.448 120.666L250.848 122.316L251.55 120.444L247.15 118.794L246.448 120.666ZM250.199 121.38V149.98H252.199V121.38H250.199ZM251.482 149.021L244.772 147.041L244.206 148.959L250.916 150.939L251.482 149.021ZM356.291 148V149H356.909L357.185 148.447L356.291 148ZM319.771 148H318.771V149H319.771V148ZM319.771 143.49L319.203 142.667L318.771 142.965V143.49H319.771ZM330.771 135.9L331.339 136.723L332.003 136.265L331.695 135.518L330.771 135.9ZM322.961 116.98L323.885 116.598L323.63 115.98H322.961V116.98ZM287.211 116.98V115.98H286.549L286.291 116.589L287.211 116.98ZM279.401 135.35L278.481 134.959L278.078 135.906L279.036 136.281L279.401 135.35ZM297.661 142.5L298.555 142.947L299.045 141.968L298.026 141.569L297.661 142.5ZM294.911 148V149H295.529L295.805 148.447L294.911 148ZM260.701 148H259.701V149H260.701V148ZM260.701 143.49L260.091 142.698L259.701 142.998V143.49H260.701ZM271.701 135.02L272.311 135.812L272.518 135.653L272.62 135.413L271.701 135.02ZM301.621 65.06L301.258 64.1281L300.867 64.2805L300.701 64.6668L301.621 65.06ZM316.031 59.45L316.955 59.0674L316.58 58.163L315.668 58.5181L316.031 59.45ZM347.821 136.23L346.897 136.613L347.03 136.933L347.333 137.103L347.821 136.23ZM359.041 142.5L359.935 142.947L360.362 142.093L359.529 141.627L359.041 142.5ZM305.471 74.41L306.395 74.029L305.488 71.8259L304.551 74.0171L305.471 74.41ZM289.961 110.71L289.041 110.317L288.446 111.71H289.961V110.71ZM320.431 110.71V111.71H321.925L321.355 110.329L320.431 110.71ZM356.291 147H319.771V149H356.291V147ZM320.771 148V143.49H318.771V148H320.771ZM320.339 144.313L331.339 136.723L330.203 135.077L319.203 142.667L320.339 144.313ZM331.695 135.518L323.885 116.598L322.037 117.362L329.847 136.282L331.695 135.518ZM322.961 115.98H287.211V117.98H322.961V115.98ZM286.291 116.589L278.481 134.959L280.321 135.741L288.131 117.371L286.291 116.589ZM279.036 136.281L297.296 143.431L298.026 141.569L279.766 134.419L279.036 136.281ZM296.766 142.053L294.016 147.553L295.805 148.447L298.555 142.947L296.766 142.053ZM294.911 147H260.701V149H294.911V147ZM261.701 148V143.49H259.701V148H261.701ZM261.311 144.282L272.311 135.812L271.091 134.228L260.091 142.698L261.311 144.282ZM272.62 135.413L302.54 65.4532L300.701 64.6668L270.781 134.627L272.62 135.413ZM301.984 65.9919L316.394 60.3819L315.668 58.5181L301.258 64.1281L301.984 65.9919ZM315.107 59.8325L346.897 136.613L348.745 135.847L316.955 59.0674L315.107 59.8325ZM347.333 137.103L358.553 143.373L359.529 141.627L348.309 135.357L347.333 137.103ZM358.146 142.053L355.396 147.553L357.185 148.447L359.935 142.947L358.146 142.053ZM304.551 74.0171L289.041 110.317L290.88 111.103L306.39 74.8029L304.551 74.0171ZM289.961 111.71H320.431V109.71H289.961V111.71ZM321.355 110.329L306.395 74.029L304.546 74.791L319.506 111.091L321.355 110.329ZM403.007 142.5L403.902 142.947L404.425 141.901L403.31 141.547L403.007 142.5ZM400.257 148V149H400.875L401.152 148.447L400.257 148ZM364.617 148H363.617V149H364.617V148ZM364.617 143.49L363.989 142.712L363.617 143.013V143.49H364.617ZM374.957 135.13L375.586 135.908L375.957 135.607V135.13H374.957ZM374.957 70.67H375.957V69.934L375.255 69.7152L374.957 70.67ZM363.297 67.04L362.403 66.5928L361.877 67.6451L363 67.9948L363.297 67.04ZM366.047 61.54V60.54H365.429L365.153 61.0928L366.047 61.54ZM401.687 61.54H402.687V60.54H401.687V61.54ZM401.687 66.05L402.312 66.8309L402.687 66.5306V66.05H401.687ZM391.237 74.41L390.613 73.6291L390.237 73.9294V74.41H391.237ZM391.237 138.76H390.237V139.492L390.935 139.713L391.237 138.76ZM451.077 148V149H451.695L451.972 148.447L451.077 148ZM429.737 148L428.942 148.606L429.242 149H429.737V148ZM396.737 104.66L396.079 103.907L395.375 104.522L395.942 105.266L396.737 104.66ZM429.847 75.73L430.505 76.483L431.484 75.6282L430.407 74.9012L429.847 75.73ZM416.977 67.04L416.083 66.5928L415.691 67.3777L416.418 67.8688L416.977 67.04ZM419.727 61.54V60.54H419.109L418.833 61.0928L419.727 61.54ZM450.637 61.54H451.637V60.54H450.637V61.54ZM450.637 66.05L451.296 66.8023L451.637 66.5035V66.05H450.637ZM412.577 99.38L411.919 98.6277L411.21 99.2482L411.787 99.9926L412.577 99.38ZM441.397 136.56L440.607 137.173L440.752 137.36L440.966 137.462L441.397 136.56ZM453.827 142.5L454.722 142.947L455.177 142.037L454.259 141.598L453.827 142.5ZM402.113 142.053L399.363 147.553L401.152 148.447L403.902 142.947L402.113 142.053ZM400.257 147H364.617V149H400.257V147ZM365.617 148V143.49H363.617V148H365.617ZM365.246 144.268L375.586 135.908L374.329 134.352L363.989 142.712L365.246 144.268ZM375.957 135.13V70.67H373.957V135.13H375.957ZM375.255 69.7152L363.595 66.0852L363 67.9948L374.66 71.6248L375.255 69.7152ZM364.192 67.4872L366.942 61.9872L365.153 61.0928L362.403 66.5928L364.192 67.4872ZM366.047 62.54H401.687V60.54H366.047V62.54ZM400.687 61.54V66.05H402.687V61.54H400.687ZM401.063 65.2691L390.613 73.6291L391.862 75.1909L402.312 66.8309L401.063 65.2691ZM390.237 74.41V138.76H392.237V74.41H390.237ZM390.935 139.713L402.705 143.453L403.31 141.547L391.54 137.807L390.935 139.713ZM451.077 147H429.737V149H451.077V147ZM430.533 147.394L397.533 104.054L395.942 105.266L428.942 148.606L430.533 147.394ZM397.395 105.413L430.505 76.483L429.189 74.977L396.079 103.907L397.395 105.413ZM430.407 74.9012L417.537 66.2112L416.418 67.8688L429.288 76.5588L430.407 74.9012ZM417.872 67.4872L420.622 61.9872L418.833 61.0928L416.083 66.5928L417.872 67.4872ZM419.727 62.54H450.637V60.54H419.727V62.54ZM449.637 61.54V66.05H451.637V61.54H449.637ZM449.979 65.2977L411.919 98.6277L413.236 100.132L451.296 66.8023L449.979 65.2977ZM411.787 99.9926L440.607 137.173L442.188 135.947L413.368 98.7674L411.787 99.9926ZM440.966 137.462L453.396 143.402L454.259 141.598L441.829 135.658L440.966 137.462ZM452.933 142.053L450.183 147.553L451.972 148.447L454.722 142.947L452.933 142.053ZM534.23 85.96L534.581 86.8963L535.23 86.653V85.96H534.23ZM529.83 87.61L529.004 88.1742L529.446 88.8217L530.181 88.5463L529.83 87.61ZM516.3 67.81L517.125 67.2458L516.827 66.81H516.3V67.81ZM487.81 67.81V66.81H486.81V67.81H487.81ZM487.81 100.7H486.81V101.7H487.81V100.7ZM503.32 100.7V101.7H503.883L504.175 101.219L503.32 100.7ZM511.46 87.28V86.28H510.897L510.605 86.7614L511.46 87.28ZM515.97 87.28H516.97V86.28H515.97V87.28ZM515.97 118.19L516.417 119.084L516.97 118.808V118.19H515.97ZM510.47 120.94L509.574 121.384L510.02 122.283L510.917 121.834L510.47 120.94ZM503.54 106.97L504.435 106.526L504.16 105.97H503.54V106.97ZM487.81 106.97V105.97H486.81V106.97H487.81ZM487.81 138.1H486.81V138.883L487.57 139.071L487.81 138.1ZM505.63 142.5L506.524 142.947L507.083 141.829L505.869 141.529L505.63 142.5ZM502.88 148V149H503.498L503.774 148.447L502.88 148ZM461.19 148H460.19V149H461.19V148ZM461.19 143.49L460.571 142.704L460.19 143.005V143.49H461.19ZM471.53 135.35L472.148 136.136L472.53 135.835V135.35H471.53ZM471.53 70.78H472.53V70.0506L471.835 69.8278L471.53 70.78ZM459.87 67.04L458.975 66.5928L458.454 67.636L459.564 67.9922L459.87 67.04ZM462.62 61.54V60.54H462.002L461.725 61.0928L462.62 61.54ZM527.52 61.54V62.54H527.664L527.803 62.4991L527.52 61.54ZM534.23 59.56H535.23V58.2223L533.947 58.6009L534.23 59.56ZM533.879 85.0237L529.479 86.6737L530.181 88.5463L534.581 86.8963L533.879 85.0237ZM530.655 87.0458L517.125 67.2458L515.474 68.3742L529.004 88.1742L530.655 87.0458ZM516.3 66.81H487.81V68.81H516.3V66.81ZM486.81 67.81V100.7H488.81V67.81H486.81ZM487.81 101.7H503.32V99.7H487.81V101.7ZM504.175 101.219L512.315 87.7986L510.605 86.7614L502.465 100.181L504.175 101.219ZM511.46 88.28H515.97V86.28H511.46V88.28ZM514.97 87.28V118.19H516.97V87.28H514.97ZM515.522 117.296L510.022 120.046L510.917 121.834L516.417 119.084L515.522 117.296ZM511.365 120.496L504.435 106.526L502.644 107.414L509.574 121.384L511.365 120.496ZM503.54 105.97H487.81V107.97H503.54V105.97ZM486.81 106.97V138.1H488.81V106.97H486.81ZM487.57 139.071L505.39 143.471L505.869 141.529L488.049 137.129L487.57 139.071ZM504.735 142.053L501.985 147.553L503.774 148.447L506.524 142.947L504.735 142.053ZM502.88 147H461.19V149H502.88V147ZM462.19 148V143.49H460.19V148H462.19ZM461.808 144.276L472.148 136.136L470.911 134.564L460.571 142.704L461.808 144.276ZM472.53 135.35V70.78H470.53V135.35H472.53ZM471.835 69.8278L460.175 66.0878L459.564 67.9922L471.224 71.7322L471.835 69.8278ZM460.764 67.4872L463.514 61.9872L461.725 61.0928L458.975 66.5928L460.764 67.4872ZM462.62 62.54H527.52V60.54H462.62V62.54ZM527.803 62.4991L534.513 60.5191L533.947 58.6009L527.237 60.5809L527.803 62.4991ZM533.23 59.56V85.96H535.23V59.56H533.23ZM582.337 148V149H582.955L583.232 148.447L582.337 148ZM546.697 148H545.697V149H546.697V148ZM546.697 143.49L546.069 142.712L545.697 143.013V143.49H546.697ZM557.037 135.13L557.666 135.908L558.037 135.607V135.13H557.037ZM557.037 70.67H558.037V69.934L557.335 69.7152L557.037 70.67ZM545.377 67.04L544.483 66.5928L543.957 67.6451L545.08 67.9948L545.377 67.04ZM548.127 61.54V60.54H547.509L547.233 61.0928L548.127 61.54ZM583.767 61.54H584.767V60.54H583.767V61.54ZM583.767 66.05L584.392 66.8309L584.767 66.5306V66.05H583.767ZM573.317 74.41L572.693 73.6291L572.317 73.9294V74.41H573.317ZM573.317 138.76H572.317V139.492L573.015 139.713L573.317 138.76ZM585.087 142.5L585.982 142.947L586.505 141.901L585.39 141.547L585.087 142.5ZM582.337 147H546.697V149H582.337V147ZM547.697 148V143.49H545.697V148H547.697ZM547.326 144.268L557.666 135.908L556.409 134.352L546.069 142.712L547.326 144.268ZM558.037 135.13V70.67H556.037V135.13H558.037ZM557.335 69.7152L545.675 66.0852L545.08 67.9948L556.74 71.6248L557.335 69.7152ZM546.272 67.4872L549.022 61.9872L547.233 61.0928L544.483 66.5928L546.272 67.4872ZM548.127 62.54H583.767V60.54H548.127V62.54ZM582.767 61.54V66.05H584.767V61.54H582.767ZM583.143 65.2691L572.693 73.6291L573.942 75.1909L584.392 66.8309L583.143 65.2691ZM572.317 74.41V138.76H574.317V74.41H572.317ZM573.015 139.713L584.785 143.453L585.39 141.547L573.62 137.807L573.015 139.713ZM584.193 142.053L581.443 147.553L583.232 148.447L585.982 142.947L584.193 142.053ZM675.317 88.16L675.668 89.0963L676.317 88.853V88.16H675.317ZM670.917 89.81L670.09 90.3723L670.532 91.0223L671.268 90.7463L670.917 89.81ZM655.957 67.81L656.784 67.2477L656.486 66.81H655.957V67.81ZM643.857 67.81V66.81H642.857V67.81H643.857ZM643.857 138.87H642.857V139.608L643.562 139.826L643.857 138.87ZM655.627 142.5L656.521 142.947L657.049 141.892L655.921 141.544L655.627 142.5ZM652.877 148V149H653.495L653.771 148.447L652.877 148ZM617.237 148H616.237V149H617.237V148ZM617.237 143.49L616.618 142.704L616.237 143.005V143.49H617.237ZM627.577 135.35L628.195 136.136L628.577 135.835V135.35H627.577ZM627.577 67.81H628.577V66.81H627.577V67.81ZM615.807 67.81V66.81H615.277L614.98 67.2477L615.807 67.81ZM600.847 89.81L600.496 90.7463L601.232 91.0223L601.674 90.3723L600.847 89.81ZM596.447 88.16H595.447V88.853L596.096 89.0963L596.447 88.16ZM596.447 59.56L596.73 58.6009L595.447 58.2223V59.56H596.447ZM603.157 61.54L602.874 62.4991L603.012 62.54H603.157V61.54ZM668.607 61.54V62.54H668.751L668.89 62.4991L668.607 61.54ZM675.317 59.56H676.317V58.2223L675.034 58.6009L675.317 59.56ZM674.966 87.2237L670.566 88.8737L671.268 90.7463L675.668 89.0963L674.966 87.2237ZM671.744 89.2477L656.784 67.2477L655.13 68.3723L670.09 90.3723L671.744 89.2477ZM655.957 66.81H643.857V68.81H655.957V66.81ZM642.857 67.81V138.87H644.857V67.81H642.857ZM643.562 139.826L655.332 143.456L655.921 141.544L644.151 137.914L643.562 139.826ZM654.732 142.053L651.982 147.553L653.771 148.447L656.521 142.947L654.732 142.053ZM652.877 147H617.237V149H652.877V147ZM618.237 148V143.49H616.237V148H618.237ZM617.855 144.276L628.195 136.136L626.958 134.564L616.618 142.704L617.855 144.276ZM628.577 135.35V67.81H626.577V135.35H628.577ZM627.577 66.81H615.807V68.81H627.577V66.81ZM614.98 67.2477L600.02 89.2477L601.674 90.3723L616.634 68.3723L614.98 67.2477ZM601.198 88.8737L596.798 87.2237L596.096 89.0963L600.496 90.7463L601.198 88.8737ZM597.447 88.16V59.56H595.447V88.16H597.447ZM596.164 60.5191L602.874 62.4991L603.44 60.5809L596.73 58.6009L596.164 60.5191ZM603.157 62.54H668.607V60.54H603.157V62.54ZM668.89 62.4991L675.6 60.5191L675.034 58.6009L668.324 60.5809L668.89 62.4991ZM674.317 59.56V88.16H676.317V59.56H674.317Z" fill="black" fill-opacity="0.2" mask="url(#path-1-outside-1_0_1)"/>
<rect width="24.2487" height="24.2487" transform="matrix(-0.5 0.866025 -0.5 -0.866025 357.181 26.3531)" stroke="#000814" stroke-width="2.5"/>
<rect width="10.8" height="10.8" transform="matrix(-0.5 0.866025 -0.5 -0.866025 365.181 12.3531)" stroke="#000814" stroke-width="2.5"/>
<rect width="10.8" height="10.8" transform="matrix(-0.5 0.866025 -0.5 -0.866025 335.181 12.3531)" stroke="#000814" stroke-width="2.5"/>
<rect width="24.2487" height="24.2487" transform="matrix(0.999848 -0.0174524 -0.48481 0.87462 363.932 25.7762)" stroke="#000814" stroke-width="2.5"/>
<rect width="10.8024" height="10.8024" transform="matrix(0.999848 -0.0174524 -0.48481 0.87462 387.414 36.5367)" stroke="#000814" stroke-width="2.5"/>
<rect width="10.8024" height="10.8024" transform="matrix(0.999848 -0.0174524 -0.48481 0.87462 371.414 12.5367)" stroke="#000814" stroke-width="2.5"/>
<rect width="24.2487" height="24.2487" transform="matrix(-0.5 -0.866026 1 -4.48349e-08 314.057 47.3531)" stroke="#000814" stroke-width="2.5"/>
<rect width="10.8" height="10.8" transform="matrix(-0.5 -0.866026 1 -4.48349e-08 297.398 47.353)" stroke="#000814" stroke-width="2.5"/>
<rect width="10.8" height="10.8" transform="matrix(-0.5 -0.866026 1 -4.48349e-08 313.398 22.3531)" stroke="#000814" stroke-width="2.5"/>
<rect width="24.2487" height="24.2487" transform="matrix(0.5 -0.866025 0.5 0.866025 333.034 184)" stroke="#000814" stroke-width="2.5"/>
<rect width="10.8" height="10.8" transform="matrix(0.5 -0.866025 0.5 0.866025 325.034 198)" stroke="#000814" stroke-width="2.5"/>
<rect width="10.8" height="10.8" transform="matrix(0.5 -0.866025 0.5 0.866025 355.034 198)" stroke="#000814" stroke-width="2.5"/>
<rect width="24.2487" height="24.2487" transform="matrix(-0.999848 0.0174524 0.48481 -0.87462 326.283 184.577)" stroke="#000814" stroke-width="2.5"/>
<rect width="10.8024" height="10.8024" transform="matrix(-0.999848 0.0174524 0.48481 -0.87462 302.801 173.816)" stroke="#000814" stroke-width="2.5"/>
<rect width="10.8024" height="10.8024" transform="matrix(-0.999848 0.0174524 0.48481 -0.87462 318.801 197.816)" stroke="#000814" stroke-width="2.5"/>
<rect width="24.2487" height="24.2487" transform="matrix(0.5 0.866026 -1 4.48349e-08 376.158 163)" stroke="#000814" stroke-width="2.5"/>
<rect width="10.8" height="10.8" transform="matrix(0.5 0.866026 -1 4.48349e-08 392.818 163)" stroke="#000814" stroke-width="2.5"/>
<rect width="10.8" height="10.8" transform="matrix(0.5 0.866026 -1 4.48349e-08 376.818 188)" stroke="#000814" stroke-width="2.5"/>
</svg>
