<svg width="83" height="91" viewBox="0 0 83 91" fill="none" xmlns="http://www.w3.org/2000/svg">
<g filter="url(#filter0_d_12_183)">
<path d="M59.4 38.5C64.3333 40.1 68.2333 42.6667 71.1 46.2C73.9667 49.6667 75.4 53.6333 75.4 58.1C75.4 62.3 73.6667 66.2667 70.2 70C66.7333 73.6667 62.4 76.6 57.2 78.8C52 81 47.0667 82.1 42.4 82.1C39.0667 82.1 35.8 81.9333 32.6 81.6C27.2667 81.2667 23.1333 81.1 20.2 81.1H6.5V77L15.9 69.6V10.6L5.3 7.39999L7.8 2.4H20.1C26.1667 2.4 32.1333 2.2 38 1.79999C42.5333 1.53333 45.8667 1.39999 48 1.39999C52.6667 1.39999 56.7667 2.26666 60.3 4C63.8333 5.73333 66.5667 8.1 68.5 11.1C70.4333 14.0333 71.4 17.3333 71.4 21C71.4 24.3333 70.3 27.5333 68.1 30.6C65.9 33.6 63 36.2333 59.4 38.5ZM55.7 25.9C55.7 20.8333 54.4 16.7333 51.8 13.6C49.2 10.4 45.3333 8.79999 40.2 8.79999C36.7333 8.79999 33.5667 9.66666 30.7 11.4V37.7H43.7C47.5 37.7 50.4333 36.7 52.5 34.7C54.6333 32.6333 55.7 29.7 55.7 25.9ZM45.2 73.4C49.6667 73.4 53.2 72.3 55.8 70.1C58.4 67.8333 59.7 64.7667 59.7 60.9C59.7 55.9667 58.2667 52 55.4 49C52.6 45.9333 48.4333 44.3 42.9 44.1C42.4333 44.1667 41.7667 44.2 40.9 44.2H30.7V71.1C34.7667 72.7667 39.6 73.6 45.2 73.6V73.4Z" fill="#000814"/>
<path d="M59.4 38.5L59.1336 38.0769L58.2296 38.6461L59.2458 38.9756L59.4 38.5ZM71.1 46.2L70.7117 46.515L70.7147 46.5186L71.1 46.2ZM70.2 70L70.5633 70.3435L70.5664 70.3402L70.2 70ZM57.2 78.8L57.0052 78.3395L57.2 78.8ZM32.6 81.6L32.6518 81.1027L32.6415 81.1016L32.6312 81.101L32.6 81.6ZM6.5 81.1H6V81.6H6.5V81.1ZM6.5 77L6.19072 76.6071L6 76.7573V77H6.5ZM15.9 69.6L16.2093 69.9929L16.4 69.8427V69.6H15.9ZM15.9 10.6H16.4V10.2287L16.0445 10.1213L15.9 10.6ZM5.3 7.39999L4.85279 7.17639L4.5874 7.70716L5.1555 7.87866L5.3 7.39999ZM7.8 2.4V1.9H7.49098L7.35279 2.17639L7.8 2.4ZM38 1.79999L37.9706 1.30084L37.966 1.30115L38 1.79999ZM60.3 4L60.5202 3.5511L60.5202 3.5511L60.3 4ZM68.5 11.1L68.0797 11.3709L68.0825 11.3752L68.5 11.1ZM68.1 30.6L68.5032 30.8957L68.5063 30.8915L68.1 30.6ZM51.8 13.6L51.4119 13.9153L51.4152 13.9193L51.8 13.6ZM30.7 11.4L30.4413 10.9721L30.2 11.118V11.4H30.7ZM30.7 37.7H30.2V38.2H30.7V37.7ZM52.5 34.7L52.8477 35.0593L52.8479 35.0591L52.5 34.7ZM45.2 73.4V72.9H44.7V73.4H45.2ZM55.8 70.1L56.123 70.4817L56.1286 70.4769L55.8 70.1ZM55.4 49L55.0307 49.3372L55.0385 49.3454L55.4 49ZM42.9 44.1L42.9181 43.6003L42.8735 43.5987L42.8293 43.605L42.9 44.1ZM30.7 44.2V43.7H30.2V44.2H30.7ZM30.7 71.1H30.2V71.4354L30.5104 71.5627L30.7 71.1ZM45.2 73.6V74.1H45.7V73.6H45.2ZM59.2458 38.9756C64.1004 40.5501 67.9141 43.0668 70.7117 46.515L71.4883 45.885C68.5526 42.2665 64.5663 39.6499 59.5543 38.0244L59.2458 38.9756ZM70.7147 46.5186C73.5078 49.8964 74.9 53.7505 74.9 58.1H75.9C75.9 53.5161 74.4255 49.437 71.4853 45.8814L70.7147 46.5186ZM74.9 58.1C74.9 62.148 73.2337 65.9981 69.8336 69.6598L70.5664 70.3402C74.0996 66.5352 75.9 62.452 75.9 58.1H74.9ZM69.8367 69.6565C66.4228 73.2673 62.1491 76.1632 57.0052 78.3395L57.3948 79.2605C62.6509 77.0368 67.0438 74.0661 70.5633 70.3435L69.8367 69.6565ZM57.0052 78.3395C51.8542 80.5188 46.9873 81.6 42.4 81.6V82.6C47.1461 82.6 52.1458 81.4812 57.3948 79.2605L57.0052 78.3395ZM42.4 81.6C39.0834 81.6 35.834 81.4342 32.6518 81.1027L32.5482 82.0973C35.766 82.4325 39.05 82.6 42.4 82.6V81.6ZM32.6312 81.101C27.2944 80.7674 23.1489 80.6 20.2 80.6V81.6C23.1177 81.6 27.2389 81.7659 32.5688 82.099L32.6312 81.101ZM20.2 80.6H6.5V81.6H20.2V80.6ZM7 81.1V77H6V81.1H7ZM6.80928 77.3929L16.2093 69.9929L15.5907 69.2071L6.19072 76.6071L6.80928 77.3929ZM16.4 69.6V10.6H15.4V69.6H16.4ZM16.0445 10.1213L5.4445 6.92133L5.1555 7.87866L15.7555 11.0787L16.0445 10.1213ZM5.74721 7.6236L8.24721 2.62361L7.35279 2.17639L4.85279 7.17639L5.74721 7.6236ZM7.8 2.9H20.1V1.9H7.8V2.9ZM20.1 2.9C26.1777 2.9 32.1557 2.69963 38.034 2.29884L37.966 1.30115C32.111 1.70036 26.1557 1.9 20.1 1.9V2.9ZM38.0294 2.29913C42.5613 2.03255 45.8823 1.89999 48 1.89999V0.899994C45.8511 0.899994 42.5054 1.03411 37.9706 1.30086L38.0294 2.29913ZM48 1.89999C52.6044 1.89999 56.6266 2.75487 60.0798 4.44889L60.5202 3.5511C56.9067 1.77845 52.7289 0.899994 48 0.899994V1.89999ZM60.0798 4.44889C63.5401 6.14641 66.2006 8.45499 68.0797 11.3708L68.9203 10.8291C66.9327 7.745 64.1265 5.32025 60.5202 3.5511L60.0798 4.44889ZM68.0825 11.3752C69.9596 14.2231 70.9 17.4266 70.9 21H71.9C71.9 17.24 70.9071 13.8435 68.9175 10.8248L68.0825 11.3752ZM70.9 21C70.9 24.2152 69.8412 27.3151 67.6937 30.3085L68.5063 30.8915C70.7588 27.7515 71.9 24.4514 71.9 21H70.9ZM67.6968 30.3043C65.5389 33.2469 62.688 35.839 59.1336 38.0769L59.6664 38.9231C63.3121 36.6277 66.2611 33.9531 68.5032 30.8957L67.6968 30.3043ZM56.2 25.9C56.2 20.7461 54.8761 16.524 52.1848 13.2807L51.4152 13.9193C53.924 16.9426 55.2 20.9206 55.2 25.9H56.2ZM52.1881 13.2847C49.4703 9.93974 45.4435 8.29999 40.2 8.29999V9.29999C45.2232 9.29999 48.9297 10.8603 51.4119 13.9153L52.1881 13.2847ZM40.2 8.29999C36.6455 8.29999 33.3888 9.18991 30.4413 10.9721L30.9587 11.8279C33.7445 10.1434 36.8212 9.29999 40.2 9.29999V8.29999ZM30.2 11.4V37.7H31.2V11.4H30.2ZM30.7 38.2H43.7V37.2H30.7V38.2ZM43.7 38.2C47.5868 38.2 50.6609 37.1756 52.8477 35.0593L52.1523 34.3407C50.2058 36.2244 47.4132 37.2 43.7 37.2V38.2ZM52.8479 35.0591C55.1038 32.8738 56.2 29.7955 56.2 25.9H55.2C55.2 29.6045 54.1629 32.3929 52.1521 34.3409L52.8479 35.0591ZM45.2 73.9C49.7476 73.9 53.4078 72.7792 56.123 70.4817L55.477 69.7183C52.9922 71.8208 49.5858 72.9 45.2 72.9V73.9ZM56.1286 70.4769C58.8514 68.1031 60.2 64.8916 60.2 60.9H59.2C59.2 64.6417 57.9486 67.5635 55.4714 69.7231L56.1286 70.4769ZM60.2 60.9C60.2 55.8639 58.7335 51.7648 55.7615 48.6546L55.0385 49.3454C57.7999 52.2352 59.2 56.0694 59.2 60.9H60.2ZM55.7692 48.6629C52.8517 45.4674 48.5392 43.8035 42.9181 43.6003L42.8819 44.5997C48.3275 44.7965 52.3484 46.3993 55.0308 49.3371L55.7692 48.6629ZM42.8293 43.605C42.3979 43.6667 41.7591 43.7 40.9 43.7V44.7C41.7742 44.7 42.4688 44.6667 42.9707 44.595L42.8293 43.605ZM40.9 43.7H30.7V44.7H40.9V43.7ZM30.2 44.2V71.1H31.2V44.2H30.2ZM30.5104 71.5627C34.6513 73.2597 39.5521 74.1 45.2 74.1V73.1C39.6479 73.1 34.8821 72.2736 30.8896 70.6373L30.5104 71.5627ZM45.7 73.6V73.4H44.7V73.6H45.7Z" fill="#001D3D"/>
</g>
<rect width="5.46264" height="5.46264" transform="matrix(-0.866025 -0.5 0.866025 -0.5 77.7308 21.4627)" fill="#000814"/>
<rect width="5.46264" height="5.46264" transform="matrix(-0.207912 0.978147 -0.743145 -0.669131 77.0313 24.3711)" fill="#000814"/>
<rect width="5.46264" height="5.46264" transform="matrix(0.601815 -0.798636 0.390731 0.920505 70.9273 12.2367)" fill="#000814"/>
<rect width="6" height="6" transform="matrix(0.866025 0.5 -0.866025 0.5 8.27039 55.745)" fill="#000814"/>
<rect width="6" height="6" transform="matrix(-0.0174524 -0.999847 0.874619 0.484809 8.27266 54.2261)" fill="#000814"/>
<rect width="6" height="6" transform="matrix(-0.866025 0.5 -4.48348e-08 -0.999999 13.5204 66.227)" fill="#000814"/>
<defs>
<filter id="filter0_d_12_183" x="0.587402" y="0.899994" width="79.3126" height="89.7" filterUnits="userSpaceOnUse" color-interpolation-filters="sRGB">
<feFlood flood-opacity="0" result="BackgroundImageFix"/>
<feColorMatrix in="SourceAlpha" type="matrix" values="0 0 0 0 0 0 0 0 0 0 0 0 0 0 0 0 0 0 127 0" result="hardAlpha"/>
<feOffset dy="4"/>
<feGaussianBlur stdDeviation="2"/>
<feComposite in2="hardAlpha" operator="out"/>
<feColorMatrix type="matrix" values="0 0 0 0 0 0 0 0 0 0 0 0 0 0 0 0 0 0 0.25 0"/>
<feBlend mode="normal" in2="BackgroundImageFix" result="effect1_dropShadow_12_183"/>
<feBlend mode="normal" in="SourceGraphic" in2="effect1_dropShadow_12_183" result="shape"/>
</filter>
</defs>
</svg>
